<?xml version="1.0" encoding="UTF-8"?>
<!DOCTYPE svg PUBLIC "-//W3C//DTD SVG 1.1//EN" "http://www.w3.org/Graphics/SVG/1.1/DTD/svg11.dtd">
<svg xmlns="http://www.w3.org/2000/svg" version="1.1" width="2000px" height="2000px" style="shape-rendering:geometricPrecision; text-rendering:geometricPrecision; image-rendering:optimizeQuality; fill-rule:evenodd; clip-rule:evenodd" xmlns:xlink="http://www.w3.org/1999/xlink">
<g><path style="opacity:0.998" fill="#fe8400" d="M 1052.5,607.5 C 1056.39,604.136 1060.72,601.303 1065.5,599C 1034.7,555.225 1004.03,511.392 973.5,467.5C 980.602,462.774 987.936,458.274 995.5,454C 997.365,452.699 999.365,452.365 1001.5,453C 1054.04,483.7 1106.7,514.2 1159.5,544.5C 1160.67,770.833 1160.83,997.166 1160,1223.5C 1124.63,1244.37 1089.13,1265.03 1053.5,1285.5C 1052.5,1059.5 1052.17,833.501 1052.5,607.5 Z"/></g>
<g><path style="opacity:0.996" fill="#fd8909" d="M 973.5,467.5 C 1004.03,511.392 1034.7,555.225 1065.5,599C 1060.72,601.303 1056.39,604.136 1052.5,607.5C 1035.53,597.678 1018.53,587.845 1001.5,578C 1000.17,577.333 998.833,577.333 997.5,578C 992.473,580.845 987.473,583.679 982.5,586.5C 962.767,557.384 942.767,528.384 922.5,499.5C 921.675,498.614 920.675,498.281 919.5,498.5C 937.166,487.664 955.166,477.331 973.5,467.5 Z"/></g>
<g><path style="opacity:0.993" fill="#fd8d10" d="M 919.5,498.5 C 920.675,498.281 921.675,498.614 922.5,499.5C 942.767,528.384 962.767,557.384 982.5,586.5C 970.612,593.363 958.779,600.363 947,607.5C 946.5,634.831 946.333,662.165 946.5,689.5C 945.955,678.578 945.122,667.578 944,656.5C 915.304,615.653 886.47,574.986 857.5,534.5C 877.831,521.998 898.498,509.998 919.5,498.5 Z"/></g>
<g><path style="opacity:0.997" fill="#fc9117" d="M 857.5,534.5 C 886.47,574.986 915.304,615.653 944,656.5C 945.122,667.578 945.955,678.578 946.5,689.5C 946.667,704.837 946.5,720.17 946,735.5C 910.643,707.975 875.143,680.642 839.5,653.5C 838.167,617.167 838.167,580.833 839.5,544.5C 845.232,540.635 851.232,537.302 857.5,534.5 Z"/></g>
<g><path style="opacity:0.996" fill="#f8af49" d="M 1266.5,606.5 C 1302.1,626.304 1337.44,646.638 1372.5,667.5C 1373.5,719.162 1373.83,770.829 1373.5,822.5C 1337.69,801.096 1302.03,779.429 1266.5,757.5C 1266.5,707.167 1266.5,656.833 1266.5,606.5 Z"/></g>
<g><path style="opacity:0.998" fill="#f8af49" d="M 732.5,606.5 C 732.5,648.833 732.5,691.167 732.5,733.5C 732.5,739.5 732.5,745.5 732.5,751.5C 732.5,753.5 732.5,755.5 732.5,757.5C 696.972,779.429 661.305,801.096 625.5,822.5C 625.167,770.829 625.5,719.162 626.5,667.5C 661.562,646.638 696.895,626.304 732.5,606.5 Z"/></g>
<g><path style="opacity:0.997" fill="#fd8c0f" d="M 732.5,606.5 C 763.68,629.924 794.68,653.591 825.5,677.5C 795.411,701.822 764.911,725.822 734,749.5C 733.827,743.984 733.327,738.651 732.5,733.5C 732.5,691.167 732.5,648.833 732.5,606.5 Z"/></g>
<g><path style="opacity:0.996" fill="#fc9016" d="M 825.5,677.5 C 835.813,685.15 845.813,693.15 855.5,701.5C 823.877,725.124 792.543,749.124 761.5,773.5C 752.167,766.5 742.833,759.5 733.5,752.5C 733.5,751.833 733.167,751.5 732.5,751.5C 732.5,745.5 732.5,739.5 732.5,733.5C 733.327,738.651 733.827,743.984 734,749.5C 764.911,725.822 795.411,701.822 825.5,677.5 Z"/></g>
<g><path style="opacity:0.995" fill="#fc941b" d="M 855.5,701.5 C 870.383,711.776 884.716,722.776 898.5,734.5C 866.438,757.533 835.104,781.533 804.5,806.5C 789.858,795.852 775.524,784.852 761.5,773.5C 792.543,749.124 823.877,725.124 855.5,701.5 Z"/></g>
<g><path style="opacity:0.995" fill="#fb9822" d="M 898.5,734.5 C 910.123,742.79 921.457,751.457 932.5,760.5C 900.847,784.14 869.847,808.474 839.5,833.5C 827.524,824.852 815.857,815.852 804.5,806.5C 835.104,781.533 866.438,757.533 898.5,734.5 Z"/></g>
<g><path style="opacity:0.998" fill="#f9ad45" d="M 732.5,757.5 C 732.5,768.833 732.5,780.167 732.5,791.5C 696.695,812.904 661.028,834.571 625.5,856.5C 625.5,845.167 625.5,833.833 625.5,822.5C 661.305,801.096 696.972,779.429 732.5,757.5 Z"/></g>
<g><path style="opacity:0.998" fill="#f9ad45" d="M 1266.5,757.5 C 1302.03,779.429 1337.69,801.096 1373.5,822.5C 1373.5,833.833 1373.5,845.167 1373.5,856.5C 1337.97,834.571 1302.31,812.904 1266.5,791.5C 1266.5,780.167 1266.5,768.833 1266.5,757.5 Z"/></g>
<g><path style="opacity:0.996" fill="#fb9b28" d="M 932.5,760.5 C 945.013,769.59 957.346,778.924 969.5,788.5C 938.681,813.075 907.681,837.408 876.5,861.5C 863.62,852.893 851.286,843.559 839.5,833.5C 869.847,808.474 900.847,784.14 932.5,760.5 Z"/></g>
<g><path style="opacity:0.996" fill="#fb9f2e" d="M 969.5,788.5 C 980.833,797.167 992.167,805.833 1003.5,814.5C 1003.49,816.017 1002.82,817.184 1001.5,818C 971.833,841 942.167,864 912.5,887C 911.552,887.483 910.552,887.649 909.5,887.5C 897.916,879.545 886.916,870.879 876.5,861.5C 907.681,837.408 938.681,813.075 969.5,788.5 Z"/></g>
<g><path style="opacity:0.998" fill="#faaa40" d="M 732.5,791.5 C 732.667,809.17 732.5,826.836 732,844.5C 696.694,866.566 661.194,888.232 625.5,909.5C 625.5,891.833 625.5,874.167 625.5,856.5C 661.028,834.571 696.695,812.904 732.5,791.5 Z"/></g>
<g><path style="opacity:0.998" fill="#faaa40" d="M 1266.5,791.5 C 1302.31,812.904 1337.97,834.571 1373.5,856.5C 1373.5,874.167 1373.5,891.833 1373.5,909.5C 1337.69,888.096 1302.03,866.429 1266.5,844.5C 1266.5,826.833 1266.5,809.167 1266.5,791.5 Z"/></g>
<g><path style="opacity:0.016" fill="#c08020" d="M 1266.5,606.5 C 1266.5,656.833 1266.5,707.167 1266.5,757.5C 1266.5,768.833 1266.5,780.167 1266.5,791.5C 1266.5,809.167 1266.5,826.833 1266.5,844.5C 1266.5,858.5 1266.5,872.5 1266.5,886.5C 1266.5,906.5 1266.5,926.5 1266.5,946.5C 1266.5,963.833 1266.5,981.167 1266.5,998.5C 1266.5,1004.5 1266.5,1010.5 1266.5,1016.5C 1265.51,1016.67 1264.84,1016.34 1264.5,1015.5C 1265.17,879.167 1265.83,742.833 1266.5,606.5 Z"/></g>
<g><path style="opacity:0.997" fill="#faa335" d="M 1003.5,814.5 C 1010.46,819.619 1017.29,824.952 1024,830.5C 1024.83,878.837 1024.67,927.17 1023.5,975.5C 985.172,946.494 947.172,917.161 909.5,887.5C 910.552,887.649 911.552,887.483 912.5,887C 942.167,864 971.833,841 1001.5,818C 1002.82,817.184 1003.49,816.017 1003.5,814.5 Z"/></g>
<g><path style="opacity:0.998" fill="#f5a337" d="M 732.5,751.5 C 733.167,751.5 733.5,751.833 733.5,752.5C 733.833,889.334 733.5,1026 732.5,1162.5C 732.5,1141.83 732.5,1121.17 732.5,1100.5C 732.5,1083.17 732.5,1065.83 732.5,1048.5C 732.5,1031.83 732.5,1015.17 732.5,998.5C 732.5,981.167 732.5,963.833 732.5,946.5C 732.667,926.497 732.5,906.497 732,886.5C 697,908.167 662,929.833 627,951.5C 626.819,948.305 626.319,945.305 625.5,942.5C 625.5,931.5 625.5,920.5 625.5,909.5C 661.194,888.232 696.694,866.566 732,844.5C 732.5,826.836 732.667,809.17 732.5,791.5C 732.5,780.167 732.5,768.833 732.5,757.5C 732.5,755.5 732.5,753.5 732.5,751.5 Z"/></g>
<g><path style="opacity:0.998" fill="#faa73a" d="M 1266.5,844.5 C 1302.03,866.429 1337.69,888.096 1373.5,909.5C 1373.5,920.5 1373.5,931.5 1373.5,942.5C 1372.68,945.305 1372.18,948.305 1372,951.5C 1336.89,929.697 1301.72,908.03 1266.5,886.5C 1266.5,872.5 1266.5,858.5 1266.5,844.5 Z"/></g>
<g><path style="opacity:0.992" fill="#faa63c" d="M 859.5,884.5 C 887.021,925.633 915.521,966.633 945,1007.5C 945.181,1010.69 945.681,1013.69 946.5,1016.5C 946.5,1037.17 946.5,1057.83 946.5,1078.5C 945.674,1073.68 945.174,1068.68 945,1063.5C 910,1013.83 875,964.167 840,914.5C 839.831,927.673 839.331,940.673 838.5,953.5C 838.5,925.5 838.5,897.5 838.5,869.5C 845.99,873.751 852.99,878.751 859.5,884.5 Z"/></g>
<g><path style="opacity:0.987" fill="#faa236" d="M 859.5,884.5 C 888.433,906.093 917.1,928.093 945.5,950.5C 946.5,972.49 946.833,994.49 946.5,1016.5C 945.681,1013.69 945.181,1010.69 945,1007.5C 915.521,966.633 887.021,925.633 859.5,884.5 Z"/></g>
<g><path style="opacity:0.998" fill="#faa335" d="M 732.5,946.5 C 697,968.418 661.333,990.085 625.5,1011.5C 625.5,988.5 625.5,965.5 625.5,942.5C 626.319,945.305 626.819,948.305 627,951.5C 662,929.833 697,908.167 732,886.5C 732.5,906.497 732.667,926.497 732.5,946.5 Z"/></g>
<g><path style="opacity:0.998" fill="#faa335" d="M 1266.5,886.5 C 1301.72,908.03 1336.89,929.697 1372,951.5C 1372.18,948.305 1372.68,945.305 1373.5,942.5C 1373.5,965.5 1373.5,988.5 1373.5,1011.5C 1337.67,990.085 1302,968.418 1266.5,946.5C 1266.5,926.5 1266.5,906.5 1266.5,886.5 Z"/></g>
<g><path style="opacity:1" fill="#faa942" d="M 946.5,1078.5 C 946.5,1087.83 946.5,1097.17 946.5,1106.5C 911.022,1056.23 875.522,1005.9 840,955.5C 839.825,960.019 839.325,964.353 838.5,968.5C 838.5,963.5 838.5,958.5 838.5,953.5C 839.331,940.673 839.831,927.673 840,914.5C 875,964.167 910,1013.83 945,1063.5C 945.174,1068.68 945.674,1073.68 946.5,1078.5 Z"/></g>
<g><path style="opacity:0.998" fill="#fa9f2e" d="M 732.5,946.5 C 732.5,963.833 732.5,981.167 732.5,998.5C 696.972,1020.43 661.305,1042.1 625.5,1063.5C 625.5,1046.17 625.5,1028.83 625.5,1011.5C 661.333,990.085 697,968.418 732.5,946.5 Z"/></g>
<g><path style="opacity:0.998" fill="#fa9f2e" d="M 1266.5,946.5 C 1302,968.418 1337.67,990.085 1373.5,1011.5C 1373.5,1028.83 1373.5,1046.17 1373.5,1063.5C 1337.69,1042.1 1302.03,1020.43 1266.5,998.5C 1266.5,981.167 1266.5,963.833 1266.5,946.5 Z"/></g>
<g><path style="opacity:0.989" fill="#f9ac47" d="M 946.5,1106.5 C 946.5,1121.17 946.5,1135.83 946.5,1150.5C 910.53,1100.58 875.03,1050.25 840,999.5C 839.83,1010.34 839.33,1021.01 838.5,1031.5C 838.5,1010.5 838.5,989.5 838.5,968.5C 839.325,964.353 839.825,960.019 840,955.5C 875.522,1005.9 911.022,1056.23 946.5,1106.5 Z"/></g>
<g><path style="opacity:0.994" fill="#f9ab42" d="M 1264.5,1015.5 C 1264.84,1016.34 1265.51,1016.67 1266.5,1016.5C 1266.5,1027.17 1266.5,1037.83 1266.5,1048.5C 1266.5,1060.83 1266.5,1073.17 1266.5,1085.5C 1265.67,1076.34 1265.17,1067.01 1265,1057.5C 1242.93,1075.08 1220.77,1092.41 1198.5,1109.5C 1194.95,1107.8 1191.78,1105.46 1189,1102.5C 1188.33,1054.17 1188.33,1005.83 1189,957.5C 1214.33,976.666 1239.49,995.999 1264.5,1015.5 Z"/></g>
<g><path style="opacity:0.998" fill="#f9b04d" d="M 946.5,1150.5 C 946.5,1169.17 946.5,1187.83 946.5,1206.5C 911.004,1154.85 875.004,1103.52 838.5,1052.5C 838.5,1045.5 838.5,1038.5 838.5,1031.5C 839.33,1021.01 839.83,1010.34 840,999.5C 875.03,1050.25 910.53,1100.58 946.5,1150.5 Z"/></g>
<g><path style="opacity:0.998" fill="#fb9b28" d="M 732.5,998.5 C 732.5,1015.17 732.5,1031.83 732.5,1048.5C 702.389,1066.39 672.389,1084.56 642.5,1103C 640.382,1104.05 638.716,1105.55 637.5,1107.5C 633.552,1105.39 629.719,1103.06 626,1100.5C 625.5,1088.17 625.333,1075.84 625.5,1063.5C 661.305,1042.1 696.972,1020.43 732.5,998.5 Z"/></g>
<g><path style="opacity:0.999" fill="#fb9b28" d="M 1266.5,998.5 C 1302.03,1020.43 1337.69,1042.1 1373.5,1063.5C 1373.67,1075.84 1373.5,1088.17 1373,1100.5C 1369.18,1103.49 1365.02,1105.82 1360.5,1107.5C 1359.97,1105.38 1358.64,1103.88 1356.5,1103C 1326.61,1084.56 1296.61,1066.39 1266.5,1048.5C 1266.5,1037.83 1266.5,1027.17 1266.5,1016.5C 1266.5,1010.5 1266.5,1004.5 1266.5,998.5 Z"/></g>
<g><path style="opacity:0.997" fill="#fb9822" d="M 732.5,1048.5 C 732.5,1065.83 732.5,1083.17 732.5,1100.5C 715.722,1110.39 699.056,1120.56 682.5,1131C 681.552,1131.48 680.552,1131.65 679.5,1131.5C 665.26,1123.93 651.26,1115.93 637.5,1107.5C 638.716,1105.55 640.382,1104.05 642.5,1103C 672.389,1084.56 702.389,1066.39 732.5,1048.5 Z"/></g>
<g><path style="opacity:1" fill="#fb9823" d="M 1266.5,1048.5 C 1296.61,1066.39 1326.61,1084.56 1356.5,1103C 1358.64,1103.88 1359.97,1105.38 1360.5,1107.5C 1346,1116.92 1331,1125.59 1315.5,1133.5C 1316.68,1132.31 1316.68,1131.15 1315.5,1130C 1299.11,1120.14 1282.78,1110.31 1266.5,1100.5C 1266.5,1095.5 1266.5,1090.5 1266.5,1085.5C 1266.5,1073.17 1266.5,1060.83 1266.5,1048.5 Z"/></g>
<g><path style="opacity:0.988" fill="#f8b353" d="M 838.5,1052.5 C 875.004,1103.52 911.004,1154.85 946.5,1206.5C 946.5,1225.17 946.5,1243.83 946.5,1262.5C 945.913,1256.57 945.08,1250.57 944,1244.5C 909.333,1195.17 874.667,1145.83 840,1096.5C 839.825,1101.02 839.325,1105.35 838.5,1109.5C 838.5,1090.5 838.5,1071.5 838.5,1052.5 Z"/></g>
<g><path style="opacity:0.995" fill="#f8ad45" d="M 1266.5,1085.5 C 1266.5,1090.5 1266.5,1095.5 1266.5,1100.5C 1266.17,1121.01 1266.5,1141.34 1267.5,1161.5C 1267.1,1162.53 1266.44,1162.69 1265.5,1162C 1242.73,1144.96 1220.4,1127.46 1198.5,1109.5C 1220.77,1092.41 1242.93,1075.08 1265,1057.5C 1265.17,1067.01 1265.67,1076.34 1266.5,1085.5 Z"/></g>
<g><path style="opacity:0.996" fill="#f8b658" d="M 946.5,1262.5 C 946.831,1270.2 946.497,1277.86 945.5,1285.5C 909.87,1265.03 874.37,1244.37 839,1223.5C 838.5,1185.5 838.333,1147.5 838.5,1109.5C 839.325,1105.35 839.825,1101.02 840,1096.5C 874.667,1145.83 909.333,1195.17 944,1244.5C 945.08,1250.57 945.913,1256.57 946.5,1262.5 Z"/></g>
<g><path style="opacity:0.987" fill="#fc941c" d="M 732.5,1100.5 C 732.5,1121.17 732.5,1141.83 732.5,1162.5C 714.634,1152.4 696.967,1142.07 679.5,1131.5C 680.552,1131.65 681.552,1131.48 682.5,1131C 699.056,1120.56 715.722,1110.39 732.5,1100.5 Z"/></g>
<g><path style="opacity:1" fill="#fc951d" d="M 1266.5,1100.5 C 1282.78,1110.31 1299.11,1120.14 1315.5,1130C 1316.68,1131.15 1316.68,1132.31 1315.5,1133.5C 1299.84,1143.33 1283.84,1152.67 1267.5,1161.5C 1266.5,1141.34 1266.17,1121.01 1266.5,1100.5 Z"/></g>
<g><path style="opacity:0.987" fill="#fe8300" d="M 583.5,1441.5 C 603.833,1441.5 624.167,1441.5 644.5,1441.5C 644.5,1476.5 644.5,1511.5 644.5,1546.5C 637.5,1546.5 630.5,1546.5 623.5,1546.5C 623.5,1518.83 623.5,1491.17 623.5,1463.5C 610.829,1463.33 598.162,1463.5 585.5,1464C 564.939,1471.29 557.772,1485.45 564,1506.5C 572.721,1521.77 585.888,1527.77 603.5,1524.5C 603.5,1531.83 603.5,1539.17 603.5,1546.5C 569.816,1549.62 548.649,1534.95 540,1502.5C 538.084,1470.28 552.584,1449.94 583.5,1441.5 Z"/></g>
<g><path style="opacity:0.979" fill="#fe8300" d="M 707.5,1441.5 C 714.167,1441.5 720.833,1441.5 727.5,1441.5C 727.5,1448.83 727.5,1456.17 727.5,1463.5C 705.982,1460.22 692.149,1468.89 686,1489.5C 685.5,1508.5 685.333,1527.5 685.5,1546.5C 678.167,1546.5 670.833,1546.5 663.5,1546.5C 663.333,1527.16 663.5,1507.83 664,1488.5C 668.002,1463 682.502,1447.33 707.5,1441.5 Z"/></g>
<g><path style="opacity:0.982" fill="#fe8300" d="M 766.5,1441.5 C 793.5,1441.5 820.5,1441.5 847.5,1441.5C 847.5,1448.83 847.5,1456.17 847.5,1463.5C 821.498,1463.33 795.498,1463.5 769.5,1464C 763.234,1468 762.067,1473.16 766,1479.5C 768.042,1481.6 770.542,1482.77 773.5,1483C 790.167,1483.33 806.833,1483.67 823.5,1484C 844.833,1492.51 851.667,1507.67 844,1529.5C 839.113,1538.53 831.613,1544.03 821.5,1546C 794.835,1546.5 768.169,1546.67 741.5,1546.5C 741.5,1539.17 741.5,1531.83 741.5,1524.5C 767.169,1524.67 792.835,1524.5 818.5,1524C 825.671,1520.48 827.171,1515.31 823,1508.5C 820.96,1506.65 818.627,1505.31 816,1504.5C 798.868,1505.92 781.701,1505.75 764.5,1504C 744.882,1495.59 738.048,1481.09 744,1460.5C 748.665,1450.66 756.165,1444.32 766.5,1441.5 Z"/></g>
<g><path style="opacity:0.989" fill="#fe8300" d="M 905.5,1441.5 C 925.833,1441.5 946.167,1441.5 966.5,1441.5C 966.5,1476.5 966.5,1511.5 966.5,1546.5C 959.5,1546.5 952.5,1546.5 945.5,1546.5C 945.5,1518.83 945.5,1491.17 945.5,1463.5C 931.441,1463.07 917.441,1463.57 903.5,1465C 888.266,1471.96 881.766,1483.8 884,1500.5C 887.059,1512.56 894.559,1520.39 906.5,1524C 912.825,1524.5 919.158,1524.67 925.5,1524.5C 925.5,1531.83 925.5,1539.17 925.5,1546.5C 891.824,1549.63 870.657,1534.96 862,1502.5C 860.084,1470.28 874.584,1449.94 905.5,1441.5 Z"/></g>
<g><path style="opacity:0.975" fill="#fe8300" d="M 1029.5,1441.5 C 1053.69,1439.18 1072.19,1448.18 1085,1468.5C 1088.21,1474.8 1090.21,1481.46 1091,1488.5C 1091.5,1507.83 1091.67,1527.16 1091.5,1546.5C 1084.17,1546.5 1076.83,1546.5 1069.5,1546.5C 1069.67,1527.5 1069.5,1508.5 1069,1489.5C 1061.74,1466.12 1046.57,1458.62 1023.5,1467C 1014.79,1472.05 1009.62,1479.55 1008,1489.5C 1007.5,1508.5 1007.33,1527.5 1007.5,1546.5C 1000.17,1546.5 992.833,1546.5 985.5,1546.5C 985.333,1527.16 985.5,1507.83 986,1488.5C 990.002,1463 1004.5,1447.33 1029.5,1441.5 Z"/></g>
<g><path style="opacity:0.978" fill="#fe8300" d="M 1110.5,1441.5 C 1117.5,1441.5 1124.5,1441.5 1131.5,1441.5C 1131.33,1459.5 1131.5,1477.5 1132,1495.5C 1135.77,1516.47 1148.27,1525.97 1169.5,1524C 1182,1520.83 1189.83,1513 1193,1500.5C 1193.5,1480.84 1193.67,1461.17 1193.5,1441.5C 1200.83,1441.5 1208.17,1441.5 1215.5,1441.5C 1215.67,1461.84 1215.5,1482.17 1215,1502.5C 1208.44,1530.2 1190.94,1544.87 1162.5,1546.5C 1134.85,1544.68 1117.68,1530.35 1111,1503.5C 1110.5,1482.84 1110.33,1462.17 1110.5,1441.5 Z"/></g>
<g><path style="opacity:0.983" fill="#fe8300" d="M 1259.5,1441.5 C 1286.17,1441.5 1312.83,1441.5 1339.5,1441.5C 1339.5,1448.83 1339.5,1456.17 1339.5,1463.5C 1313.83,1463.33 1288.16,1463.5 1262.5,1464C 1256.53,1467.39 1255.03,1472.23 1258,1478.5C 1260.19,1481.18 1263.03,1482.68 1266.5,1483C 1283.17,1483.33 1299.83,1483.67 1316.5,1484C 1335.98,1491.79 1343.15,1505.96 1338,1526.5C 1333.59,1537.12 1325.76,1543.62 1314.5,1546C 1287.84,1546.5 1261.17,1546.67 1234.5,1546.5C 1234.5,1539.17 1234.5,1531.83 1234.5,1524.5C 1260.17,1524.67 1285.84,1524.5 1311.5,1524C 1318.06,1520.25 1319.56,1515.08 1316,1508.5C 1313.96,1506.65 1311.63,1505.31 1309,1504.5C 1293.91,1505.66 1278.74,1505.82 1263.5,1505C 1248.08,1503.05 1238.58,1494.55 1235,1479.5C 1232.89,1460.02 1241.06,1447.36 1259.5,1441.5 Z"/></g>
<g><path style="opacity:0.982" fill="#fe8300" d="M 1398.5,1441.5 C 1418.83,1441.5 1439.17,1441.5 1459.5,1441.5C 1459.5,1476.5 1459.5,1511.5 1459.5,1546.5C 1452.17,1546.5 1444.83,1546.5 1437.5,1546.5C 1437.5,1518.83 1437.5,1491.17 1437.5,1463.5C 1423.77,1463.07 1410.11,1463.57 1396.5,1465C 1378.35,1474.13 1372.52,1488.29 1379,1507.5C 1387.91,1521.7 1400.74,1527.37 1417.5,1524.5C 1417.5,1531.83 1417.5,1539.17 1417.5,1546.5C 1384.75,1549.22 1363.91,1534.88 1355,1503.5C 1352.53,1470.74 1367.03,1450.08 1398.5,1441.5 Z"/></g>
</svg>
